# xmcd CD database file
#
# Track frame offsets:
#	150
#	17625
#	39732
#
# Disc length: 745 seconds
#
# Revision: 0
# Processed by: cddbd v1.5.1PL0 Copyright (c) Steve Scherf et al.
# Submitted via: CDex 1.60beta1
#
DISCID=1c02e703
DTITLE=中森明菜 - ミ・アモーレ[Meu amor e...]
DYEAR=1998
DGENRE=JPop
TTITLE0=ミ・アモーレ[Meu amor e...]
TTITLE1=ロンリー・ジャーニー
TTITLE2=ミ・アモーレ[Meu amor e...] <Live Version>
EXTD=YEAR: 1998
EXTT0=
EXTT1=
EXTT2=
PLAYORDER=
